HIERARCHY
ROOT Hips
{
	OFFSET 0.00000 0.00000 0.00000
	CHANNELS 6 Xposition Yposition Zposition Yrotation Zrotation Xrotation 
	JOINT Lumbar
	{
		OFFSET 0 0 0
		CHANNELS 3 Zrotation Xrotation Yrotation
		JOINT Neck
		{
			OFFSET 0.00 0.2701 0.00
			CHANNELS 3 Zrotation Xrotation Yrotation
			End Site
			{
				OFFSET 0.00 0.1379 0.00
			}
		}
		JOINT RightShoulder
		{
			OFFSET 0.0119 0.2289 0.1181
			CHANNELS 3 Zrotation Xrotation Yrotation
			JOINT RightElbow
			{
				OFFSET 0.00 -0.1475 0.00
				CHANNELS 2 Zrotation Yrotation
				JOINT RightWrist
				{
					OFFSET 0.00 -0.1605 0.00
					CHANNELS 2 Zrotation Xrotation
					End Site
					{
						OFFSET 0.0040 -0.1068 0.0006
					}
				}
			}
		}
		JOINT LeftShoulder
		{
			OFFSET 0.0119 0.2289 -0.1181
			CHANNELS 3 Zrotation Xrotation Yrotation
			JOINT LeftElbow
			{
				OFFSET 0.00 -0.1475 0.00
				CHANNELS 2 Zrotation Yrotation
				JOINT LeftWrist
				{
					OFFSET 0.00 -0.1605 0.00
					CHANNELS 2 Zrotation Xrotation
					End Site
					{
						OFFSET 0.0040 -0.1068 -0.0006
					}
				}
			}
		}
	}
	JOINT RightHip
	{
		OFFSET 0.0316 -0.0424 0.0458
		CHANNELS 3 Zrotation Xrotation Yrotation
		JOINT RightKnee
		{
			OFFSET 0.00 -0.2438 0.00
			CHANNELS 1 Zrotation
			JOINT RightAnkle
			{
				OFFSET 0.00 -0.2449 0.00
				CHANNELS 3 Zrotation Xrotation Yrotation
				End Site
				{
					OFFSET 0.1237 -0.0542 0.0051
				}
			}
		}
	}
	JOINT LeftHip
	{
		OFFSET 0.0316 -0.0424 -0.0458
		CHANNELS 3 Zrotation Xrotation Yrotation
		JOINT LeftKnee
		{
			OFFSET 0.00 -0.2438 0.00
			CHANNELS 1 Zrotation
			JOINT LeftAnkle
			{
				OFFSET 0.00 -0.2449 0.00
				CHANNELS 3 Zrotation Xrotation Yrotation
				End Site
				{
					OFFSET 0.1237 -0.0542 -0.0051
				}
			}
		}
	}
}
MOTION
Frames: 20
Frame Time: 0.02
-0 0.57926 0 184.49464 0 -3.08415 2.02376 2.44385 -3.87909 -25.77657 2.79516 1.90082 -29.6308 -73.20205 -85.9728 23.7184 73.96049 -25.1614 -1.64821 -15.16481 76.47789 73.15577 24.25216 -71.02379 -33.03944 1.63541 -3.6824 2.30616 7.66026 -6.30583 -1.46243 -2.62705 -5.5281 -2.20537 5.01574 -0.48745 -6.41022 -0.16392 1.26063 -0.94605
2e-05 0.57926 -1e-05 184.49476 0 -3.08436 2.02176 2.44583 -3.88202 -25.78272 2.78926 1.89514 -29.38995 -73.15601 -85.91281 23.78875 73.9692 -25.04545 -1.6025 -15.21384 76.46986 73.15042 24.26708 -70.94241 -32.99057 1.63042 -3.6792 2.3081 7.67549 -6.30966 -1.46198 -2.63525 -5.53614 -2.20352 5.01703 -0.48877 -6.4106 -0.16362 1.26063 -0.94609
3e-05 0.57926 -3e-05 184.49488 0 -3.08456 2.01978 2.44777 -3.88491 -25.7887 2.78339 1.8895 -29.15118 -73.11017 -85.85333 23.85854 73.97724 -24.93042 -1.55747 -15.26262 76.4619 73.14541 24.28201 -70.86218 -32.94227 1.62555 -3.67605 2.31004 7.6906 -6.31341 -1.46151 -2.64343 -5.54416 -2.20165 5.01833 -0.49019 -6.41102 -0.1633 1.26062 -0.94602
5e-05 0.57925 -5e-05 184.495 0 -3.08476 2.01788 2.44965 -3.8876 -25.79433 2.77754 1.8841 -28.918 -73.06466 -85.79526 23.92672 73.98234 -24.81776 -1.51479 -15.30821 76.45444 73.13983 24.29639 -70.78566 -32.89598 1.62132 -3.67303 2.312 7.70592 -6.31692 -1.46085 -2.65176 -5.55279 -2.19973 5.01963 -0.49177 -6.4116 -0.16292 1.26054 -0.94575
7e-05 0.57925 -6e-05 184.49513 0 -3.08498 2.01563 2.45193 -3.8913 -25.8021 2.77153 1.87758 -28.65478 -73.0174 -85.72967 24.00333 74.00261 -24.69237 -1.45977 -15.36748 76.44469 73.135 24.31282 -70.68935 -32.83931 1.61394 -3.66929 2.31385 7.7208 -6.32176 -1.46106 -2.65948 -5.55891 -2.19813 5.02089 -0.49224 -6.41135 -0.16286 1.26074 -0.94683
8e-05 0.57925 -8e-05 184.49525 0 -3.08515 2.01408 2.45331 -3.89289 -25.80515 2.76589 1.87335 -28.45563 -72.97386 -85.68008 24.06212 73.99104 -24.59411 -1.43082 -15.39994 76.43954 73.13012 24.32549 -70.63508 -32.80447 1.61307 -3.66709 2.31593 7.73613 -6.32375 -1.45949 -2.66836 -5.56982 -2.19585 5.02223 -0.49521 -6.41285 -0.16213 1.26041 -0.94488
9e-05 0.57924 -0.0001 184.4953 0 -3.08515 2.01486 2.45248 -3.88829 -25.79645 2.76083 1.87637 -28.43164 -72.93985 -85.67458 24.07088 73.88582 -24.56988 -1.4764 -15.33778 76.44942 73.11205 24.32286 -70.69911 -32.83247 1.63216 -3.66914 2.31889 7.75723 -6.31786 -1.4522 -2.6817 -5.59927 -2.19166 5.0239 -0.50386 -6.4192 -0.15949 1.25818 -0.93566
0.0001 0.57924 -0.00013 184.49537 0 -3.08509 2.01628 2.45068 -3.88163 -25.78279 2.75619 1.88156 -28.47237 -72.90962 -85.68524 24.0619 73.7495 -24.57303 -1.5479 -15.25192 76.46345 73.09616 24.31751 -70.80528 -32.88201 1.65754 -3.67275 2.32205 7.77812 -6.30911 -1.44325 -2.696 -5.63276 -2.18681 5.02565 -0.51517 -6.4273 -0.15619 1.25548 -0.92324
0.0001 0.57924 -0.00016 184.49548 0 -3.08505 2.01715 2.44914 -3.87615 -25.77047 2.75166 1.88517 -28.48494 -72.87822 -85.68859 24.06146 73.6308 -24.56439 -1.60591 -15.19072 76.47416 73.08792 24.31641 -70.89074 -32.92017 1.67868 -3.67566 2.32495 7.79594 -6.30166 -1.43556 -2.70902 -5.66075 -2.18227 5.0273 -0.52615 -6.43461 -0.15322 1.25331 -0.91146
0.00011 0.57924 -0.00019 184.4954 0 -3.08505 2.0191 2.44838 -3.86963 -25.76177 2.74598 1.89123 -28.49326 -72.84486 -85.69184 24.05864 73.4969 -24.55359 -1.67101 -15.07241 76.49118 73.0438 24.30192 -70.9826 -32.96532 1.70537 -3.67854 2.32855 7.82643 -6.29414 -1.42573 -2.72552 -5.70352 -2.17766 5.0292 -0.53373 -6.44193 -0.1501 1.24989 -0.90282
0.00012 0.57924 -0.00021 184.4957 0 -3.08495 2.019 2.44575 -3.86479 -25.74463 2.74267 1.89276 -28.52451 -72.81605 -85.69909 24.05705 73.38789 -24.55308 -1.72764 -15.06551 76.49572 73.07417 24.31547 -71.07136 -33.00065 1.72232 -3.68185 2.33077 7.83134 -6.28616 -1.41997 -2.73509 -5.71733 -2.17307 5.03062 -0.54863 -6.44958 -0.14716 1.24888 -0.88727
0.00011 0.57925 -0.00024 184.49716 0 -3.08457 2.01273 2.4384 -3.86506 -25.70303 2.74658 1.88066 -28.6135 -72.802 -85.71363 24.06026 73.35054 -24.57963 -1.75315 -15.38883 76.46715 73.31662 24.40101 -71.14 -33.00672 1.70803 -3.68616 2.32876 7.75818 -6.27709 -1.42583 -2.72444 -5.64253 -2.16833 5.03056 -0.58665 -6.4582 -0.1447 1.25517 -0.84987
0.00011 0.57925 -0.00027 184.49901 0 -3.08409 2.00442 2.42918 -3.86711 -25.65348 2.75265 1.86398 -28.72091 -72.79152 -85.73153 24.06663 73.3406 -24.61413 -1.76941 -15.8222 76.42524 73.63297 24.51653 -71.20467 -33.00139 1.68424 -3.69082 2.32543 7.66056 -6.26774 -1.43584 -2.70694 -5.53978 -2.16367 5.03004 -0.63135 -6.467 -0.14246 1.26381 -0.80623
0.0001 0.57925 -0.0003 184.50058 0 -3.0837 1.99732 2.42069 -3.86832 -25.60923 2.75726 1.84987 -28.81381 -72.77771 -85.74782 24.07255 73.3207 -24.64208 -1.79091 -16.19387 76.38809 73.91057 24.62161 -71.27152 -32.99946 1.66661 -3.69521 2.32297 7.57923 -6.25884 -1.444 -2.69313 -5.45496 -2.15925 5.02985 -0.67055 -6.47536 -0.14022 1.27103 -0.76784
0.0001 0.57926 -0.00033 184.50245 0 -3.08316 1.98916 2.41265 -3.86952 -25.55799 2.76413 1.83401 -28.93698 -72.7724 -85.76529 24.07062 73.28757 -24.68532 -1.80931 -16.61304 76.3573 74.20883 24.7109 -71.33673 -33.00658 1.64142 -3.70013 2.3194 7.47658 -6.24848 -1.45202 -2.67692 -5.34859 -2.15377 5.0292 -0.7199 -6.48521 -0.13755 1.27968 -0.71936
9e-05 0.57926 -0.00036 184.50393 0 -3.08288 1.98258 2.40325 -3.8713 -25.51908 2.76653 1.82038 -28.99803 -72.74872 -85.78054 24.0899 73.29093 -24.69583 -1.83119 -16.96098 76.30912 74.48312 24.84305 -71.40578 -32.99091 1.62967 -3.704 2.31779 7.41187 -6.24116 -1.46124 -2.66407 -5.27992 -2.15039 5.02937 -0.75011 -6.49208 -0.13584 1.28595 -0.69017
7e-05 0.57926 -0.00037 184.50308 0 -3.08345 1.98188 2.39034 -3.87331 -25.51985 2.75851 1.81659 -28.90425 -72.68583 -85.79038 24.1348 73.37151 -24.63532 -1.86878 -17.07359 76.22384 74.65911 25.06264 -71.46997 -32.92299 1.65693 -3.7051 2.32229 7.46359 -6.24201 -1.47364 -2.66216 -5.32647 -2.15379 5.03223 -0.72196 -6.48964 -0.13667 1.28492 -0.71838
5e-05 0.57926 -0.00037 184.50201 0 -3.08426 1.98266 2.37616 -3.87603 -25.53268 2.7455 1.8147 -28.74257 -72.60198 -85.79662 24.20769 73.49133 -24.538 -1.90958 -17.11239 76.11989 74.81046 25.32908 -71.54118 -32.831 1.6981 -3.7051 2.32873 7.55332 -6.24598 -1.48696 -2.66386 -5.4111 -2.15913 5.03587 -0.67499 -6.48434 -0.13846 1.28144 -0.76576
3e-05 0.57926 -0.00037 184.50185 0 -3.08485 1.98204 2.36269 -3.87903 -25.53754 2.73315 1.81023 -28.59836 -72.51955 -85.80449 24.28813 73.60424 -24.44276 -1.94598 -17.19362 76.01964 74.98304 25.58911 -71.6195 -32.7447 1.73318 -3.70546 2.33404 7.62187 -6.24877 -1.49929 -2.66391 -5.47545 -2.16291 5.03896 -0.6392 -6.481 -0.13985 1.27918 -0.80268
1e-05 0.57926 -0.00038 184.49842 0 -3.08587 1.98432 2.34861 -3.87951 -25.55243 2.72752 1.81289 -28.51333 -72.47147 -85.8161 24.28041 73.67138 -24.40751 -1.99351 -17.24381 75.93978 75.11822 25.78598 -71.6535 -32.67998 1.76697 -3.7064 2.34035 7.70586 -6.25063 -1.51415 -2.66379 -5.55135 -2.16949 5.04287 -0.5927 -6.47493 -0.14111 1.27654 -0.84674
